<svg xmlns="http://www.w3.org/2000/svg" width="62" height="90" viewBox="0 0 62 90">
  <metadata><?xpacket begin="﻿" id="W5M0MpCehiHzreSzNTczkc9d"?>
<x:xmpmeta xmlns:x="adobe:ns:meta/" x:xmptk="Adobe XMP Core 5.6-c138 79.159824, 2016/09/14-01:09:01        ">
   <rdf:RDF xmlns:rdf="http://www.w3.org/1999/02/22-rdf-syntax-ns#">
      <rdf:Description rdf:about=""/>
   </rdf:RDF>
</x:xmpmeta>
                                                                                                    
                                                                                                    
                                                                                                    
                                                                                                    
                                                                                                    
                                                                                                    
                                                                                                    
                                                                                                    
                                                                                                    
                                                                                                    
                                                                                                    
                                                                                                    
                                                                                                    
                                                                                                    
                                                                                                    
                                                                                                    
                                                                                                    
                                                                                                    
                                                                                                    
                                                                                                    
                           
<?xpacket end="w"?></metadata>
<defs>
    <style>
      .cls-1 {
        fill: #535870;
        fill-rule: evenodd;
      }
    </style>
  </defs>
  <path id="Forma_1" data-name="Forma 1" class="cls-1" d="M2182.54,541.4a29.72,29.72,0,0,0-1.46-3.6c-5.76-13.84-18.34-18.8-28.5-18.8-13.6,0-28.58,9.12-30.58,27.919v3.841c0,0.16.06,1.6,0.13,2.32,1.12,8.96,8.19,18.481,13.47,27.44,5.68,9.6,11.58,19.041,17.42,28.48,3.6-6.159,7.19-12.4,10.7-18.4,0.96-1.76,2.08-3.52,3.04-5.2,0.64-1.119,1.86-2.238,2.42-3.279,5.68-10.4,14.82-20.879,14.82-31.2v-4.239A32.8,32.8,0,0,0,2182.54,541.4Zm-29.71,19.281c-4,0-8.37-2-10.53-7.52a10.15,10.15,0,0,1-.3-2.8v-2.48c0-7.038,5.98-10.239,11.17-10.239a11.332,11.332,0,0,1,11.36,11.521A11.626,11.626,0,0,1,2152.83,560.681Z" transform="translate(-2122 -519)"/>
</svg>
