<?xml version="1.0" encoding="utf-8"?>
<!-- Generator: Adobe Illustrator 22.0.1, SVG Export Plug-In . SVG Version: 6.00 Build 0)  -->
<svg version="1.1" id="Layer_1" xmlns="http://www.w3.org/2000/svg" xmlns:xlink="http://www.w3.org/1999/xlink" x="0px" y="0px"
	 viewBox="0 0 400 138" style="enable-background:new 0 0 400 138;" xml:space="preserve">
<style type="text/css">
	.st0{fill:#1968B3;}
	.st1{fill:#EE5A9F;stroke:#FFFFFF;stroke-miterlimit:10;}
	.st2{fill:#EE5A9F;}
</style>
<g>
	<g>
		<circle class="st0" cx="49.5" cy="55.2" r="40.7"/>
	</g>
	<g>
		<g>
			<path class="st1" d="M60.4,35.2c-3.4,5.1-5.9,10.6-7.8,16.2c13.5-8.6,43.9-28.1,45.1-29.1C91.9,25,68,23.8,60.4,35.2z"/>
			<path class="st1" d="M52.1,51.9l0.2-0.6c2-6,4.7-11.5,7.8-16.2l0.2,0.1L60.2,35c5.4-8,18.5-9.8,28.1-11.2c4-0.6,7.5-1,9.3-1.9
				l1.5-0.7l-1.2,1.1c-1.1,1-28.7,18.7-45.1,29.1L52.1,51.9z M96.1,23c-1.9,0.5-4.6,0.9-7.8,1.3c-9.5,1.3-22.6,3.1-27.8,11
				c-3,4.5-5.6,9.7-7.5,15.5C65,43.1,89.9,27.2,96.1,23z"/>
		</g>
		<g>
			<path class="st1" d="M4.1,4.9l33.8,40.6c-0.8-10.9-1-19.1-1.9-20.9C29.5,13,7.8,8.3,4.1,4.9z"/>
			<path class="st1" d="M38.2,46.2L3.9,5l0.3-0.3C5.4,5.8,8.4,7,12.1,8.5c8.3,3.4,19.6,8,24.1,16c0.7,1.3,1,5.8,1.4,12.7
				c0.2,2.5,0.3,5.3,0.5,8.3L38.2,46.2z M5.4,6l32.2,38.7c-0.2-2.7-0.4-5.3-0.5-7.6c-0.4-6.5-0.7-11.2-1.4-12.4
				c-4.3-7.9-15.6-12.5-23.8-15.8C9.2,7.8,6.9,6.9,5.4,6z"/>
		</g>
		<g>
			<path class="st1" d="M52.6,51.4c-3.9,2.5-6.4,4.1-6.4,4.1l-8.3-9.9C39,60.6,41.3,80.8,48.7,96C47.6,93.1,45.7,71.8,52.6,51.4z"/>
			<path class="st1" d="M48.5,96.1C41,80.7,38.7,59.8,37.7,45.5l-0.1-0.7l8.6,10.3c0.6-0.4,2.9-1.9,6.2-4l0.6-0.4l-0.2,0.6
				c-6.6,19.8-5.1,41.2-3.9,44.5L48.5,96.1z M38.2,46.2c1,13.7,3.2,32.9,9.8,47.8c-1-6.3-1.8-24.2,4.1-42.1
				c-3.6,2.3-5.8,3.7-5.8,3.7l-0.2,0.1L38.2,46.2z"/>
		</g>
		<g>
			
				<ellipse transform="matrix(0.7337 -0.6795 0.6795 0.7337 -13.9699 43.3616)" class="st1" cx="48.3" cy="39.5" rx="4.4" ry="2.7"/>
			<path class="st1" d="M46.6,43.3c-0.7,0-1.3-0.2-1.7-0.7c-1.1-1.2-0.4-3.5,1.4-5.3c0.9-0.8,1.9-1.4,2.9-1.6c1-0.2,1.9,0,2.4,0.6
				c0.5,0.6,0.7,1.5,0.4,2.5c-0.3,1-0.9,2-1.8,2.8c-0.9,0.8-1.9,1.4-2.9,1.6C47.1,43.3,46.9,43.3,46.6,43.3z M50,36.2
				c-0.2,0-0.4,0-0.7,0.1c-0.9,0.2-1.9,0.7-2.7,1.5c-1.7,1.5-2.3,3.6-1.4,4.6c0.4,0.5,1.1,0.6,2,0.4c0.9-0.2,1.9-0.7,2.7-1.5l0,0
				c0.8-0.8,1.4-1.7,1.7-2.6c0.2-0.8,0.1-1.6-0.3-2C51.1,36.4,50.6,36.2,50,36.2z"/>
		</g>
	</g>
	<g>
		<g>
			<path class="st2" d="M35.3,128.6h-3.8v-10.4h-9.8v10.4h-3.8v-23.1h3.8v9.3h9.8v-9.3h3.8V128.6z M32.4,127.7h1.9v-21.2h-1.9v9.3
				H20.8v-9.3h-1.9v21.2h1.9v-10.4h11.7V127.7z"/>
		</g>
		<g>
			<path class="st2" d="M48.5,129c-6.1,0-10.4-4.8-10.4-11.7c0-7.1,4.4-12.1,10.8-12.1c6.2,0,10.4,4.7,10.4,11.7
				C59.3,125.2,53.9,129,48.5,129z M48.8,106.1c-5.8,0-9.8,4.6-9.8,11.2c0,6.4,3.8,10.8,9.5,10.8c6,0,9.8-4.4,9.8-11.2
				C58.3,110.4,54.5,106.1,48.8,106.1z M48.7,126.7c-5,0-7.5-4.8-7.5-9.5c0-4.8,2.3-9.7,7.6-9.7c5.2,0,7.5,4.9,7.5,9.5
				C56.2,122.7,53.1,126.7,48.7,126.7z M48.7,108.4c-4.6,0-6.6,4.4-6.6,8.8c0,4.1,2.1,8.5,6.6,8.5c4.6,0,6.6-4.4,6.6-8.7
				C55.3,112.9,53.2,108.4,48.7,108.4z"/>
		</g>
		<g>
			<path class="st2" d="M72.1,129c-6.9,0-11.4-4.6-11.4-11.7c0-7.1,5-12.1,12.1-12.1c3.2,0,5,0.8,5.5,1l0.3,0.2l-1,3.2l-0.5-0.2
				c-1.2-0.6-2.7-0.9-4.3-0.9c-5.1,0-8.2,3.2-8.2,8.7c0,5.3,3,8.4,8,8.4c1.6,0,3.4-0.3,4.5-0.9l0.5-0.3l0.8,3.2l-0.3,0.2
				C77.1,128.4,75,129,72.1,129z M72.8,106.1c-6.6,0-11.1,4.5-11.1,11.2c0,6.6,4,10.7,10.5,10.7c2.4,0,4.3-0.4,5.3-0.8l-0.4-1.3
				c-1.2,0.5-2.8,0.7-4.4,0.7c-5.5,0-9-3.6-9-9.4c0-5.9,3.5-9.6,9.1-9.6c1.5,0,3,0.3,4.2,0.7l0.4-1.4
				C76.8,106.6,75.2,106.1,72.8,106.1z"/>
		</g>
	</g>
	<g>
		<g>
			<path class="st0" d="M146.4,30.7V39c0,1.7,0,3.2,0,4.4c0,0.4,0.2,0.7,0.6,0.8l2.6,0.8l0.1,1.1c-1.8,0-4-0.1-6.5-0.1
				c-2.6,0-4.9,0-6.9,0.1l-0.1-1.1l3-0.8c0.4-0.1,0.6-0.3,0.6-0.7c0-1.2,0-2.7,0-4.4V21.3c0-1.5,0-2.7,0-3.7c0-0.4-0.2-0.6-0.5-0.7
				l-3-0.9l-0.1-1.1c2.1,0.1,4.3,0.1,6.8,0.1c2.6,0,4.8,0,6.6-0.1l0.1,1.1l-2.6,0.8c-0.4,0.1-0.6,0.3-0.6,0.7c0,1.1,0,2.3,0,3.8v7.2
				h13.3v-7.2c0-1.4,0-2.7,0-3.8c0-0.4-0.2-0.6-0.6-0.7l-2.6-0.8l-0.1-1.1c1.9,0.1,4.1,0.1,6.7,0.1c2.5,0,4.8,0,6.8-0.1l0.1,1.1
				l-3,0.9c-0.3,0.1-0.5,0.3-0.6,0.7c0,1,0,2.2,0,3.7V39c0,1.7,0,3.2,0,4.4c0,0.3,0.2,0.6,0.6,0.7l2.9,0.8l0.1,1.1
				c-2.1,0-4.5-0.1-7-0.1c-2.5,0-4.6,0-6.4,0.1l-0.1-1.1l2.7-0.8c0.4-0.1,0.6-0.4,0.6-0.8c0-1.2,0-2.6,0-4.4v-8.2H146.4z"/>
		</g>
		<g>
			<path class="st0" d="M193.6,44.5c-2.7,1.4-5.6,2.1-8.7,2.1c-3.6,0-6.6-0.9-8.9-2.7c-2.3-1.8-3.4-4.4-3.4-7.9c0-3.3,1.1-6,3.3-8.1
				c2.2-2.1,5-3.1,8.4-3.1c3,0,5.3,0.8,6.9,2.4c1.6,1.6,2.4,3.8,2.4,6.7c0,0.4,0,0.9-0.1,1.3h-14.2c0,3,0.7,5.1,2.2,6.4
				c1.5,1.3,3.9,2,7.2,2c1.6,0,3.2-0.1,4.6-0.4L193.6,44.5z M187,33v-0.5c0-2-0.3-3.5-0.8-4.3c-0.5-0.9-1.3-1.3-2.3-1.3
				c-1.3,0-2.3,0.6-3,1.8c-0.7,1.2-1.2,2.7-1.3,4.4H187z"/>
		</g>
		<g>
			<path class="st0" d="M234,39.3c0,1.9,0,3.2,0,4.1c0,0.4,0.2,0.7,0.6,0.8l2.7,0.8l0.1,1.1c-2.1,0-4.3-0.1-6.4-0.1
				c-2.2,0-4.2,0-5.9,0.1L225,45l2.1-0.7c0.3-0.1,0.5-0.3,0.6-0.7c0-0.2,0-0.7,0-1.4v-9.3c0-1.8-0.3-3.1-1-3.9
				c-0.7-0.8-1.7-1.2-3-1.2c-1.2,0-2.5,0.4-3.9,1.3c0.2,0.7,0.3,1.5,0.3,2.4v7.8c0,1.9,0,3.3,0,4.2c0,0.4,0.2,0.6,0.5,0.7l2.2,0.7
				l0,1.1c-1.7,0-3.7-0.1-5.8-0.1c-2.2,0-4.2,0-5.9,0.1l-0.1-1.1l2.1-0.7c0.3-0.1,0.5-0.3,0.6-0.7c0-0.2,0-0.7,0-1.4v-9.3
				c0-1.8-0.3-3.1-1-3.9c-0.7-0.8-1.7-1.2-3-1.2c-1.2,0-2.4,0.4-3.6,1.1v9.6c0,1.9,0,3.6,0,5.1c0,0.4,0.2,0.6,0.5,0.7l2.2,0.7l0,1.1
				c-1.8,0-3.8-0.1-5.9-0.1c-2.2,0-4.4,0-6.5,0.1l-0.1-1.1l2.9-0.8c0.3-0.1,0.5-0.3,0.5-0.7c0-0.9,0-1.9,0-2.7v-7.3
				c0-1.9,0-3.7-0.1-5.4l-3.2-0.8l-0.1-0.9c3.4-0.5,6.6-1.1,9.4-1.7l0.3,0.2v2.4c2.4-1.7,4.8-2.5,7.2-2.5c2.7,0,4.6,1,5.8,2.9
				c2.8-2,5.4-2.9,8.1-2.9c2.1,0,3.7,0.6,4.9,1.8c1.2,1.2,1.8,2.8,1.8,5V39.3z"/>
		</g>
		<g>
			<path class="st0" d="M241.3,26.9c3.2-1.4,6.2-2.2,9.1-2.2c2.7,0,4.7,0.6,6,1.8c1.3,1.2,2,2.9,2,5.1l-0.1,9.2c0,0.8,0,1.4,0,1.8
				c0.1,0.5,0.2,0.8,0.4,1.1c0.2,0.2,0.5,0.4,1,0.5c0.4,0.1,1,0.2,1.8,0.2l0.1,1c-2.1,0.7-3.9,1.1-5.4,1.1c-2,0-3.3-0.8-4-2.4
				c-1.9,1.6-3.9,2.4-6,2.4c-2.1,0-3.8-0.5-5.1-1.5c-1.3-1-2-2.5-2-4.3c0-2.3,1.1-4,3.2-5.1c2.2-1.1,5.4-1.6,9.7-1.6l0-1.7
				c0-1.6-0.4-2.8-1.1-3.5c-0.8-0.7-2-1.1-3.6-1.1c-1.5,0-3.4,0.3-5.5,1L241.3,26.9z M252.1,36.1c-2.3,0-4,0.3-5,0.9
				c-1,0.6-1.5,1.6-1.5,3c0,1.3,0.4,2.2,1.1,2.8c0.7,0.6,1.5,0.8,2.5,0.8c1.1,0,2.1-0.3,2.9-0.8L252.1,36.1z"/>
		</g>
		<g>
			<path class="st0" d="M272.5,28c-0.1,4.6-0.1,8.5-0.1,11.8c0,1.5,0.2,2.5,0.7,3.1c0.5,0.6,1.3,0.9,2.6,0.9c1,0,2.1-0.1,3.3-0.2
				l0.2,1.3c-2.4,1.2-4.6,1.7-6.6,1.7c-2.1,0-3.7-0.4-4.8-1.3c-1.1-0.9-1.7-2.2-1.7-3.9c0-3.1,0-7.6,0.1-13.5l-3-0.8l-0.2-1.2
				l3.7-0.3l2.1-5.2c1.3-0.2,2.4-0.4,3.4-0.6l0.3,0.2c0,1.8-0.1,3.7-0.1,5.7h6.2V28H272.5z"/>
		</g>
		<g>
			<path class="st0" d="M304.9,35.2c0,3.4-1.1,6.1-3.4,8.2c-2.3,2.1-5.2,3.1-8.8,3.1c-3.5,0-6.3-1-8.4-3c-2.1-2-3.1-4.6-3.1-7.8
				c0-3.2,1.1-5.9,3.3-8c2.2-2.1,5.2-3.1,8.9-3.1c3.5,0,6.4,1,8.4,2.9C303.9,29.5,304.9,32.1,304.9,35.2z M288.1,35.4
				c0,2.7,0.4,4.9,1.2,6.6c0.8,1.7,2.1,2.5,3.9,2.5c1.7,0,2.9-0.7,3.7-2.2c0.8-1.5,1.2-3.7,1.2-6.6c0-2.7-0.4-4.9-1.2-6.5
				c-0.8-1.6-2.1-2.4-3.9-2.4c-1.6,0-2.8,0.7-3.6,2.1C288.5,30.4,288.1,32.5,288.1,35.4z"/>
		</g>
		<g>
			<path class="st0" d="M307.6,14.2c3.7-0.5,6.9-1.1,9.7-1.7l0.2,0.2c-0.1,2-0.1,4.2-0.1,6.5v20.6c0,1.8,0,3,0,3.7
				c0,0.4,0.2,0.7,0.6,0.8l2.8,0.8l0.1,1.1c-2.2,0-4.4-0.1-6.5-0.1c-2.2,0-4.4,0-6.5,0.1l-0.1-1.1l2.8-0.8c0.3-0.1,0.5-0.3,0.6-0.7
				c0-0.6,0-1.5,0-2.9V21.3c0-1.9,0-3.7-0.1-5.4l-3.3-0.9L307.6,14.2z"/>
		</g>
		<g>
			<path class="st0" d="M347.2,35.2c0,3.4-1.1,6.1-3.4,8.2c-2.3,2.1-5.2,3.1-8.8,3.1c-3.5,0-6.3-1-8.4-3c-2.1-2-3.1-4.6-3.1-7.8
				c0-3.2,1.1-5.9,3.3-8c2.2-2.1,5.2-3.1,8.9-3.1c3.5,0,6.4,1,8.4,2.9C346.2,29.5,347.2,32.1,347.2,35.2z M330.4,35.4
				c0,2.7,0.4,4.9,1.2,6.6c0.8,1.7,2.1,2.5,3.9,2.5c1.7,0,2.9-0.7,3.7-2.2c0.8-1.5,1.2-3.7,1.2-6.6c0-2.7-0.4-4.9-1.2-6.5
				c-0.8-1.6-2.1-2.4-3.9-2.4c-1.6,0-2.8,0.7-3.6,2.1C330.8,30.4,330.4,32.5,330.4,35.4z"/>
		</g>
		<g>
			<path class="st0" d="M373.6,26.5l-5.2,1.3c1.1,1.3,1.6,2.7,1.6,4.3c0,2.4-0.9,4.3-2.6,5.7c-1.7,1.4-4,2.1-6.8,2.1
				c-1.7,0-3.3-0.3-4.6-0.8c-0.6,1.1-0.9,1.9-0.9,2.6c0,0.4,0.2,0.6,0.6,0.8c0.4,0.1,1.2,0.2,2.4,0.2c0.9,0,2,0,3.3,0
				c1.3,0,2.5,0,3.5,0c2.5,0,4.4,0.5,5.8,1.4c1.3,0.9,2,2.3,2,4.2c0,2.8-1.4,5-4.1,6.7c-2.7,1.7-5.9,2.5-9.3,2.5
				c-2.9,0-5.1-0.4-6.8-1.3c-1.7-0.9-2.5-2-2.5-3.3c0-1.7,1.2-3.6,3.5-5.4c-1.5-0.6-2.3-1.5-2.3-2.8c0-1.5,1.1-3.5,3.4-6.2
				c-2.3-1.3-3.4-3.3-3.4-5.9c0-2.3,0.9-4.2,2.6-5.6c1.7-1.4,4.1-2.1,7-2.1c0.8,0,1.8,0.1,3.1,0.3c1.3,0.2,2.3,0.3,3,0.3
				c2.4,0,4.6,0,6.6-0.1L373.6,26.5z M355.4,47.7c-0.7,1.3-1.1,2.5-1.1,3.7c0,1.2,0.5,2.1,1.6,2.7c1.1,0.7,2.5,1,4.4,1
				c2.2,0,4.2-0.4,5.8-1.3c1.6-0.9,2.4-2,2.4-3.5c0-0.8-0.3-1.4-1-1.9c-0.7-0.5-2.1-0.7-4.4-0.7c-0.9,0-1.9,0-2.9,0
				c-1,0-2,0.1-2.9,0.1C356.8,47.8,356.1,47.7,355.4,47.7z M357.5,32.2c0,1.9,0.2,3.4,0.7,4.5c0.5,1.1,1.3,1.6,2.5,1.6
				c1.2,0,2-0.5,2.4-1.5c0.4-1,0.7-2.4,0.7-4.3c0-1.8-0.2-3.3-0.7-4.3c-0.5-1.1-1.3-1.6-2.5-1.6c-1.2,0-2,0.5-2.4,1.4
				C357.7,28.9,357.5,30.3,357.5,32.2z"/>
		</g>
		<g>
			<path class="st0" d="M373.9,25.2c2,0,3.8,0.1,5.4,0.1c2.1,0,4.3,0,6.6-0.1l0.1,1.1l-2.8,0.7c0.6,1.5,1.1,2.8,1.6,4.2
				c0.5,1.3,1.2,3,2.1,5c0.4,0.8,0.8,1.8,1.2,3c0.4-1.2,0.9-2.3,1.4-3.4c1.2-3.2,2.3-6.1,3.3-8.7l-2.3-0.7l-0.1-1.1
				c1.2,0,2.5,0.1,4.1,0.1c1.4,0,2.7,0,3.9-0.1l0.1,1.1l-2.1,0.6c-0.5,0.1-0.8,0.5-1,0.9c-0.5,1.2-1.1,2.6-1.7,4.1
				c-1.9,4.6-3.4,8.4-4.5,11.5c-0.7,2-1.3,4-1.8,6c-0.5,2.1-1,3.9-1.3,5.4c-0.2,0.8-0.5,1.4-0.9,1.7c-0.4,0.3-1.4,0.5-3,0.5
				c-1.6,0-3.2-0.1-4.7-0.2l-0.1-1c1.7-0.2,2.9-0.7,3.6-1.4c1-1,2.5-3.8,4.5-8.3l0.2-0.4l-1.2-0.3c-2.7-6.6-5.1-12.4-7.3-17.5
				c-0.2-0.5-0.5-0.8-1-0.9l-2.1-0.6L373.9,25.2z"/>
		</g>
	</g>
	<g>
		<g>
			<path class="st2" d="M153.5,55.1c-5.4,0-9.6,1.5-12.6,4.5c-3,3-4.6,7-4.6,12.2c0,4.9,1.4,8.8,4.2,11.7c2.8,2.9,6.8,4.3,12,4.3
				c5.4,0,9.6-1.6,12.6-4.7c3-3.1,4.5-7.2,4.5-12.4c0-4.8-1.4-8.6-4.2-11.4C162.7,56.5,158.7,55.1,153.5,55.1z M160,82.2
				c-1.5,2.3-3.7,3.4-6.8,3.4c-3.1,0-5.4-1.3-7-3.8c-1.6-2.5-2.4-6.1-2.4-10.9c0-4.6,0.7-8.1,2.1-10.4c1.4-2.3,3.7-3.4,6.8-3.4
				c3.2,0,5.6,1.2,7.2,3.7c1.5,2.5,2.3,6,2.3,10.6C162.2,76.4,161.5,80,160,82.2z"/>
		</g>
		<g>
			<path class="st2" d="M197.6,85.2c-0.4-0.1-0.6-0.4-0.6-0.8c0-0.9,0-2.3,0-4.1v-7.8c0-2.2-0.6-3.8-1.8-5s-2.9-1.8-5.1-1.8
				c-2.4,0-4.9,0.8-7.4,2.5v-2.4l-0.3-0.2c-2.8,0.6-6,1.2-9.4,1.7l0.1,0.9l3.2,0.8c0.1,1.6,0.1,3.4,0.1,5.4v7.3c0,0.9,0,1.8,0,2.7
				c0,0.4-0.2,0.6-0.5,0.7l-2.9,0.8L173,87c2.1,0,4.3-0.1,6.5-0.1c2.2,0,4.2,0,6,0.1l0-1.1l-2.3-0.7c-0.3-0.1-0.5-0.3-0.5-0.7
				c0-1.5,0-3.2,0-5.1v-9.6c1.3-0.7,2.6-1.1,3.8-1.1c1.4,0,2.5,0.4,3.2,1.2c0.7,0.8,1.1,2.1,1.1,3.9v9.3c0,0.7,0,1.2,0,1.4
				c0,0.3-0.2,0.6-0.6,0.7l-2.2,0.7L188,87c1.8,0,3.8-0.1,6-0.1c2.1,0,4.3,0,6.4,0.1l-0.1-1.1L197.6,85.2z"/>
		</g>
		<g>
			<path class="st2" d="M217.5,84.6c-2.5,0-4.5-0.7-5.9-2.1c-1.4-1.4-2.1-3.5-2.1-6.4c0-2.5,0.5-4.5,1.6-5.9
				c1.1-1.5,2.5-2.2,4.2-2.2c0.7,0,1.2,0.1,1.6,0.2l1.7,5.6l1.2-0.2c0.4-2.3,0.9-4.5,1.4-6.6c-2.1-0.8-4.2-1.3-6.5-1.3
				c-3.5,0-6.4,1.1-8.7,3.2c-2.3,2.1-3.4,4.9-3.4,8.3c0,3.1,1,5.7,3.1,7.5c2.1,1.9,4.8,2.8,8,2.8c2.6,0,5.2-0.7,7.6-2.1l-0.2-1.3
				C220,84.4,218.7,84.6,217.5,84.6z"/>
		</g>
		<g>
			<path class="st2" d="M236.1,65.7c-3.7,0-6.7,1-8.9,3.1c-2.2,2.1-3.3,4.7-3.3,8c0,3.2,1,5.8,3.1,7.8c2.1,2,4.9,3,8.4,3
				c3.6,0,6.6-1,8.8-3.1c2.3-2.1,3.4-4.8,3.4-8.2c0-3.2-1-5.7-3.1-7.6C242.4,66.7,239.6,65.7,236.1,65.7z M239.6,83.3
				c-0.8,1.5-2,2.2-3.7,2.2c-1.8,0-3.1-0.8-3.9-2.5c-0.8-1.7-1.2-3.9-1.2-6.6c0-2.9,0.4-5,1.2-6.4c0.8-1.4,2-2.1,3.6-2.1
				c1.7,0,3,0.8,3.9,2.4c0.8,1.6,1.2,3.7,1.2,6.5C240.7,79.6,240.4,81.8,239.6,83.3z"/>
		</g>
		<g>
			<path class="st2" d="M260.7,85.2c-0.3-0.1-0.5-0.4-0.6-0.8c0-0.7,0-1.9,0-3.7V60.2c0-2.3,0-4.5,0.1-6.5l-0.2-0.2
				c-2.8,0.6-6,1.2-9.7,1.7l0.1,0.9l3.3,0.9c0.1,1.6,0.1,3.4,0.1,5.4v19.3c0,1.4,0,2.3,0,2.9c0,0.4-0.2,0.6-0.6,0.7l-2.8,0.8
				l0.1,1.1c2.1,0,4.3-0.1,6.5-0.1c2.2,0,4.3,0,6.5,0.1l-0.1-1.1L260.7,85.2z"/>
		</g>
		<g>
			<path class="st2" d="M278.3,65.7c-3.7,0-6.7,1-8.9,3.1c-2.2,2.1-3.3,4.7-3.3,8c0,3.2,1,5.8,3.1,7.8c2.1,2,4.9,3,8.4,3
				c3.6,0,6.6-1,8.8-3.1c2.3-2.1,3.4-4.8,3.4-8.2c0-3.2-1-5.7-3.1-7.6C284.7,66.7,281.9,65.7,278.3,65.7z M281.8,83.3
				c-0.8,1.5-2,2.2-3.7,2.2c-1.8,0-3.1-0.8-3.9-2.5c-0.8-1.7-1.2-3.9-1.2-6.6c0-2.9,0.4-5,1.2-6.4c0.8-1.4,2-2.1,3.6-2.1
				c1.7,0,3,0.8,3.9,2.4c0.8,1.6,1.2,3.7,1.2,6.5C283,79.6,282.6,81.8,281.8,83.3z"/>
		</g>
		<g>
			<path class="st2" d="M316.1,66.3c-2,0-4.2,0.1-6.6,0.1c-0.7,0-1.7-0.1-3-0.3c-1.3-0.2-2.4-0.3-3.1-0.3c-2.9,0-5.3,0.7-7,2.1
				c-1.7,1.4-2.6,3.3-2.6,5.6c0,2.6,1.1,4.6,3.4,5.9c-2.2,2.7-3.4,4.8-3.4,6.2c0,1.2,0.8,2.1,2.3,2.8c-2.3,1.9-3.5,3.7-3.5,5.4
				c0,1.3,0.8,2.4,2.5,3.3c1.7,0.9,3.9,1.3,6.8,1.3c3.5,0,6.6-0.8,9.3-2.5c2.7-1.7,4.1-3.9,4.1-6.7c0-1.9-0.7-3.3-2-4.2
				c-1.3-0.9-3.3-1.4-5.8-1.4c-1.1,0-2.2,0-3.5,0c-1.3,0-2.4,0-3.3,0c-1.2,0-2-0.1-2.4-0.2c-0.4-0.1-0.6-0.4-0.6-0.8
				c0-0.7,0.3-1.6,0.9-2.6c1.3,0.5,2.9,0.8,4.6,0.8c2.8,0,5.1-0.7,6.8-2.1c1.7-1.4,2.6-3.3,2.6-5.7c0-1.6-0.5-3-1.6-4.3l5.2-1.3
				L316.1,66.3z M298.1,88.7c0.7,0,1.3,0.1,2,0.1c0.9,0,1.9,0,2.9-0.1c1,0,2-0.1,2.9,0c2.3,0,3.7,0.2,4.4,0.7c0.7,0.5,1,1.1,1,1.9
				c0,1.5-0.8,2.6-2.4,3.5c-1.6,0.9-3.6,1.3-5.8,1.3c-1.9,0-3.3-0.3-4.4-1c-1.1-0.7-1.6-1.6-1.6-2.7C297.1,91.2,297.4,90,298.1,88.7
				z M305.8,77.7c-0.4,1-1.2,1.5-2.4,1.5c-1.2,0-2-0.5-2.5-1.6c-0.5-1.1-0.7-2.5-0.7-4.5c0-1.8,0.2-3.2,0.6-4.2
				c0.4-1,1.2-1.4,2.4-1.4c1.2,0,2.1,0.5,2.5,1.6c0.5,1.1,0.7,2.5,0.7,4.3C306.5,75.3,306.3,76.7,305.8,77.7z"/>
		</g>
		<g>
			<path class="st2" d="M341.1,66.2c-1.2,0-2.5,0.1-3.9,0.1c-1.6,0-2.9,0-4.1-0.1l0.1,1.1l2.3,0.7c-1,2.7-2.1,5.6-3.3,8.7
				c-0.5,1.1-0.9,2.3-1.4,3.4c-0.4-1.1-0.9-2.1-1.2-3c-0.9-2-1.5-3.7-2.1-5c-0.5-1.3-1.1-2.7-1.6-4.2l2.8-0.7l-0.1-1.1
				c-2.3,0-4.6,0.1-6.6,0.1c-1.6,0-3.4,0-5.4-0.1l0.1,1.1l2.1,0.6c0.5,0.1,0.8,0.5,1,0.9c2.2,5.1,4.6,10.9,7.3,17.5l1.2,0.3
				l-0.2,0.4c-2,4.5-3.5,7.2-4.5,8.3c-0.7,0.7-1.9,1.2-3.6,1.4l0.1,1c1.5,0.1,3,0.2,4.7,0.2c1.6,0,2.6-0.2,3-0.5
				c0.4-0.3,0.7-0.9,0.9-1.7c0.3-1.6,0.8-3.4,1.3-5.4c0.5-2.1,1.2-4.1,1.8-6c1.1-3,2.6-6.9,4.5-11.5c0.6-1.5,1.2-2.9,1.7-4.1
				c0.2-0.5,0.5-0.8,1-0.9l2.1-0.6L341.1,66.2z"/>
		</g>
	</g>
	<g>
		<g>
			<path class="st0" d="M155.7,125.7c-3.8,0-6.7-1.3-8.8-3.8c-2.1-2.5-3.2-5.9-3.2-10.1c0-4,0.9-7.2,2.7-9.6
				c1.8-2.5,4.3-3.7,7.6-3.7c1.4,0,2.6,0.2,3.8,0.6l1.7,6.4l1.2-0.2l1.4-7.8l-0.1-0.2c-2.7-0.6-5.4-0.9-8-0.9
				c-5.3,0-9.6,1.5-12.8,4.4c-3.3,3-4.9,7-4.9,12.1c0,4.8,1.5,8.6,4.5,11.5c3,2.9,6.9,4.4,11.8,4.4c3.7,0,7.1-1,10-3l-0.3-1.3
				C160,125.3,157.8,125.7,155.7,125.7z"/>
		</g>
		<g>
			<path class="st0" d="M185.8,126.3c-0.4-0.1-0.7-0.3-1-0.5c-0.2-0.2-0.4-0.6-0.4-1.1c-0.1-0.5-0.1-1.1,0-1.8l0.1-9.2
				c0-2.2-0.6-4-2-5.1c-1.3-1.2-3.3-1.8-6-1.8c-2.9,0-6,0.7-9.1,2.2l0.6,1.8c2.1-0.7,4-1,5.5-1c1.6,0,2.9,0.4,3.6,1.1
				c0.8,0.7,1.2,1.9,1.1,3.5l0,1.7c-4.3,0-7.5,0.5-9.7,1.6c-2.2,1.1-3.2,2.8-3.2,5.1c0,1.9,0.7,3.3,2,4.3c1.3,1,3,1.5,5.1,1.5
				c2.1,0,4.1-0.8,6-2.4c0.6,1.6,2,2.4,4,2.4c1.5,0,3.3-0.4,5.4-1.1l-0.1-1C186.8,126.4,186.2,126.4,185.8,126.3z M178.3,124.8
				c-0.8,0.6-1.8,0.8-2.9,0.8c-1,0-1.8-0.3-2.5-0.8c-0.7-0.6-1.1-1.5-1.1-2.8c0-1.4,0.5-2.5,1.5-3c1-0.6,2.7-0.9,5-0.9L178.3,124.8z
				"/>
		</g>
		<g>
			<path class="st0" d="M199.3,109.2v-2.4l-0.3-0.2c-2.8,0.6-6,1.2-9.4,1.7l0.1,0.9l3.2,0.8c0.1,1.1,0.1,2.9,0.1,5.3v7.4
				c0,1.2,0,2.1,0,2.7c0,0.3-0.2,0.6-0.6,0.7l-2.8,0.8l0.1,1.1c2.1,0,4.3-0.1,6.4-0.1c2.2,0,4.6,0,7,0.1l-0.1-1.1l-3.2-0.8
				c-0.4-0.1-0.5-0.4-0.6-0.8c0-1,0-2.6,0-4.9v-9.5c1.1-0.5,2.1-0.8,2.8-0.8c0.8,0,1.4,0.4,1.7,1.2c0.4,0.8,0.7,1.9,1.1,3.4l1.3-0.2
				c0.4-2.7,0.9-5.2,1.4-7.6l-0.1-0.2C204.7,106.7,202,107.5,199.3,109.2z"/>
		</g>
		<g>
			<path class="st0" d="M230.5,115.8c0-2.8-0.8-5.1-2.4-6.7c-1.6-1.6-3.9-2.4-6.9-2.4c-3.4,0-6.2,1-8.4,3.1
				c-2.2,2.1-3.3,4.8-3.3,8.1c0,3.5,1.1,6.1,3.4,7.9c2.3,1.8,5.2,2.7,8.9,2.7c3,0,5.9-0.7,8.7-2.1l-0.2-1.4c-1.5,0.3-3,0.4-4.6,0.4
				c-3.3,0-5.7-0.7-7.2-2c-1.5-1.3-2.2-3.4-2.2-6.4h14.2C230.4,116.6,230.5,116.2,230.5,115.8z M223.7,114.9h-7.4
				c0.1-1.7,0.6-3.2,1.3-4.4c0.7-1.2,1.8-1.8,3-1.8c1.1,0,1.8,0.4,2.3,1.3c0.5,0.9,0.8,2.3,0.8,4.3V114.9z"/>
		</g>
	</g>
</g>
</svg>
